STARTFONT 2.1
COMMENT
COMMENT Converted from OpenType font "MessengerPark.ttf" by "otf2bdf 3.0".
COMMENT
FONT -FreeType-MessengerPark-Medium-R-Normal--16-160-72-72-P-59-ISO10646-1
SIZE 16 72 72
FONTBOUNDINGBOX 11 13 0 -3
STARTPROPERTIES 19
FOUNDRY "FreeType"
FAMILY_NAME "MessengerPark"
WEIGHT_NAME "Medium"
SLANT "R"
SETWIDTH_NAME "Normal"
ADD_STYLE_NAME ""
PIXEL_SIZE 16
POINT_SIZE 160
RESOLUTION_X 72
RESOLUTION_Y 72
SPACING "P"
AVERAGE_WIDTH 59
CHARSET_REGISTRY "ISO10646"
CHARSET_ENCODING "1"
FONT_ASCENT 10
FONT_DESCENT 3
COPYRIGHT "PaulSpades"
_OTF_FONTFILE "MessengerPark.ttf"
_OTF_PSNAME "MessengerPark"
ENDPROPERTIES
CHARS 107
STARTCHAR 0020
ENCODING 32
SWIDTH 312 0
DWIDTH 5 0
BBX 0 0 0 0
BITMAP
ENDCHAR
STARTCHAR 0021
ENCODING 33
SWIDTH 187 0
DWIDTH 3 0
BBX 1 9 1 -1
BITMAP
80
80
80
80
80
80
00
80
80
ENDCHAR
STARTCHAR 0022
ENCODING 34
SWIDTH 250 0
DWIDTH 4 0
BBX 3 3 0 5
BITMAP
A0
A0
A0
ENDCHAR
STARTCHAR 0023
ENCODING 35
SWIDTH 375 0
DWIDTH 6 0
BBX 5 7 0 0
BITMAP
50
50
78
50
F8
50
50
ENDCHAR
STARTCHAR 0024
ENCODING 36
SWIDTH 437 0
DWIDTH 7 0
BBX 5 10 1 -1
BITMAP
20
70
88
80
70
08
88
F0
20
20
ENDCHAR
STARTCHAR 0025
ENCODING 37
SWIDTH 562 0
DWIDTH 9 0
BBX 8 10 0 0
BITMAP
30
48
48
33
0C
30
CC
12
12
0C
ENDCHAR
STARTCHAR 0026
ENCODING 38
SWIDTH 500 0
DWIDTH 8 0
BBX 7 7 0 0
BITMAP
30
40
46
64
98
90
6C
ENDCHAR
STARTCHAR 0027
ENCODING 39
SWIDTH 187 0
DWIDTH 3 0
BBX 2 3 0 5
BITMAP
C0
C0
40
ENDCHAR
STARTCHAR 0028
ENCODING 40
SWIDTH 312 0
DWIDTH 5 0
BBX 3 10 1 -2
BITMAP
20
40
80
80
80
80
80
80
40
20
ENDCHAR
STARTCHAR 0029
ENCODING 41
SWIDTH 312 0
DWIDTH 5 0
BBX 3 10 1 -2
BITMAP
80
40
20
20
20
20
20
20
40
80
ENDCHAR
STARTCHAR 002A
ENCODING 42
SWIDTH 375 0
DWIDTH 6 0
BBX 5 5 0 3
BITMAP
A8
70
20
70
A8
ENDCHAR
STARTCHAR 002B
ENCODING 43
SWIDTH 437 0
DWIDTH 7 0
BBX 5 5 1 0
BITMAP
20
20
F8
20
20
ENDCHAR
STARTCHAR 002C
ENCODING 44
SWIDTH 250 0
DWIDTH 4 0
BBX 2 4 1 -2
BITMAP
C0
40
40
80
ENDCHAR
STARTCHAR 002D
ENCODING 45
SWIDTH 312 0
DWIDTH 5 0
BBX 4 1 0 2
BITMAP
F0
ENDCHAR
STARTCHAR 002E
ENCODING 46
SWIDTH 187 0
DWIDTH 3 0
BBX 2 2 0 0
BITMAP
C0
C0
ENDCHAR
STARTCHAR 002F
ENCODING 47
SWIDTH 375 0
DWIDTH 6 0
BBX 5 10 0 -2
BITMAP
08
08
10
10
20
20
40
40
80
80
ENDCHAR
STARTCHAR 0030
ENCODING 48
SWIDTH 375 0
DWIDTH 6 0
BBX 5 8 0 0
BITMAP
70
88
88
88
88
88
88
70
ENDCHAR
STARTCHAR 0031
ENCODING 49
SWIDTH 375 0
DWIDTH 6 0
BBX 5 8 0 0
BITMAP
20
E0
20
20
20
20
20
F8
ENDCHAR
STARTCHAR 0032
ENCODING 50
SWIDTH 375 0
DWIDTH 6 0
BBX 5 8 0 0
BITMAP
70
88
08
10
20
40
80
F8
ENDCHAR
STARTCHAR 0033
ENCODING 51
SWIDTH 375 0
DWIDTH 6 0
BBX 5 8 0 0
BITMAP
70
88
08
30
08
08
88
70
ENDCHAR
STARTCHAR 0034
ENCODING 52
SWIDTH 437 0
DWIDTH 7 0
BBX 6 8 0 0
BITMAP
08
18
28
48
88
FC
08
1C
ENDCHAR
STARTCHAR 0035
ENCODING 53
SWIDTH 375 0
DWIDTH 6 0
BBX 5 8 0 0
BITMAP
F8
80
B0
C8
08
08
88
70
ENDCHAR
STARTCHAR 0036
ENCODING 54
SWIDTH 375 0
DWIDTH 6 0
BBX 5 8 0 0
BITMAP
30
40
80
B0
C8
88
88
70
ENDCHAR
STARTCHAR 0037
ENCODING 55
SWIDTH 375 0
DWIDTH 6 0
BBX 5 8 0 0
BITMAP
F8
08
08
10
10
20
20
20
ENDCHAR
STARTCHAR 0038
ENCODING 56
SWIDTH 375 0
DWIDTH 6 0
BBX 5 8 0 0
BITMAP
70
88
88
70
88
88
88
70
ENDCHAR
STARTCHAR 0039
ENCODING 57
SWIDTH 375 0
DWIDTH 6 0
BBX 5 8 0 0
BITMAP
70
88
88
98
68
08
10
60
ENDCHAR
STARTCHAR 003A
ENCODING 58
SWIDTH 187 0
DWIDTH 3 0
BBX 1 6 1 0
BITMAP
80
80
00
00
80
80
ENDCHAR
STARTCHAR 003B
ENCODING 59
SWIDTH 250 0
DWIDTH 4 0
BBX 2 8 1 -2
BITMAP
40
40
00
00
C0
40
40
80
ENDCHAR
STARTCHAR 003C
ENCODING 60
SWIDTH 375 0
DWIDTH 6 0
BBX 4 7 1 0
BITMAP
10
20
40
80
40
20
10
ENDCHAR
STARTCHAR 003D
ENCODING 61
SWIDTH 437 0
DWIDTH 7 0
BBX 5 3 1 1
BITMAP
F8
00
F8
ENDCHAR
STARTCHAR 003E
ENCODING 62
SWIDTH 437 0
DWIDTH 7 0
BBX 4 7 2 0
BITMAP
80
40
20
10
20
40
80
ENDCHAR
STARTCHAR 003F
ENCODING 63
SWIDTH 437 0
DWIDTH 7 0
BBX 5 9 1 -1
BITMAP
70
88
88
08
30
20
00
20
20
ENDCHAR
STARTCHAR 0040
ENCODING 64
SWIDTH 437 0
DWIDTH 7 0
BBX 5 10 1 -1
BITMAP
30
48
88
98
A8
A8
98
80
48
30
ENDCHAR
STARTCHAR 0041
ENCODING 65
SWIDTH 625 0
DWIDTH 10 0
BBX 9 8 0 0
BITMAP
3800
0800
1400
1400
2200
3E00
4100
E380
ENDCHAR
STARTCHAR 0042
ENCODING 66
SWIDTH 437 0
DWIDTH 7 0
BBX 6 8 0 0
BITMAP
F8
44
44
78
44
44
44
F8
ENDCHAR
STARTCHAR 0043
ENCODING 67
SWIDTH 500 0
DWIDTH 8 0
BBX 7 8 0 0
BITMAP
3E
46
80
80
80
80
42
3C
ENDCHAR
STARTCHAR 0044
ENCODING 68
SWIDTH 500 0
DWIDTH 8 0
BBX 7 8 0 0
BITMAP
F8
44
42
42
42
42
44
F8
ENDCHAR
STARTCHAR 0045
ENCODING 69
SWIDTH 437 0
DWIDTH 7 0
BBX 6 8 0 0
BITMAP
FC
44
40
78
40
40
44
FC
ENDCHAR
STARTCHAR 0046
ENCODING 70
SWIDTH 437 0
DWIDTH 7 0
BBX 6 8 0 0
BITMAP
FC
44
40
78
40
40
40
F0
ENDCHAR
STARTCHAR 0047
ENCODING 71
SWIDTH 562 0
DWIDTH 9 0
BBX 8 8 0 0
BITMAP
3E
46
80
80
8F
82
42
3C
ENDCHAR
STARTCHAR 0048
ENCODING 72
SWIDTH 562 0
DWIDTH 9 0
BBX 8 8 0 0
BITMAP
E7
42
42
7E
42
42
42
E7
ENDCHAR
STARTCHAR 0049
ENCODING 73
SWIDTH 375 0
DWIDTH 6 0
BBX 5 8 0 0
BITMAP
F8
20
20
20
20
20
20
F8
ENDCHAR
STARTCHAR 004A
ENCODING 74
SWIDTH 500 0
DWIDTH 8 0
BBX 7 8 0 0
BITMAP
3E
04
04
04
04
84
88
70
ENDCHAR
STARTCHAR 004B
ENCODING 75
SWIDTH 500 0
DWIDTH 8 0
BBX 7 8 0 0
BITMAP
E6
44
48
50
68
44
44
E6
ENDCHAR
STARTCHAR 004C
ENCODING 76
SWIDTH 500 0
DWIDTH 8 0
BBX 7 8 0 0
BITMAP
F8
20
20
20
20
22
22
FE
ENDCHAR
STARTCHAR 004D
ENCODING 77
SWIDTH 625 0
DWIDTH 10 0
BBX 9 8 0 0
BITMAP
E380
6300
5500
5500
4900
4900
4100
E380
ENDCHAR
STARTCHAR 004E
ENCODING 78
SWIDTH 562 0
DWIDTH 9 0
BBX 8 8 0 0
BITMAP
E7
62
52
52
4A
4A
46
E6
ENDCHAR
STARTCHAR 004F
ENCODING 79
SWIDTH 500 0
DWIDTH 8 0
BBX 7 8 0 0
BITMAP
38
44
82
82
82
82
44
38
ENDCHAR
STARTCHAR 0050
ENCODING 80
SWIDTH 500 0
DWIDTH 8 0
BBX 7 8 0 0
BITMAP
FC
42
42
42
7C
40
40
F0
ENDCHAR
STARTCHAR 0051
ENCODING 81
SWIDTH 500 0
DWIDTH 8 0
BBX 7 11 0 -3
BITMAP
38
44
82
82
82
82
44
38
10
1E
06
ENDCHAR
STARTCHAR 0052
ENCODING 82
SWIDTH 500 0
DWIDTH 8 0
BBX 7 8 0 0
BITMAP
F8
44
44
48
70
48
44
E6
ENDCHAR
STARTCHAR 0053
ENCODING 83
SWIDTH 437 0
DWIDTH 7 0
BBX 5 8 1 0
BITMAP
78
98
80
60
18
08
88
F0
ENDCHAR
STARTCHAR 0054
ENCODING 84
SWIDTH 500 0
DWIDTH 8 0
BBX 7 8 0 0
BITMAP
FE
92
92
10
10
10
10
38
ENDCHAR
STARTCHAR 0055
ENCODING 85
SWIDTH 500 0
DWIDTH 8 0
BBX 7 8 0 0
BITMAP
EE
44
44
44
44
44
44
38
ENDCHAR
STARTCHAR 0056
ENCODING 86
SWIDTH 562 0
DWIDTH 9 0
BBX 8 8 0 0
BITMAP
E7
42
42
24
24
24
18
18
ENDCHAR
STARTCHAR 0057
ENCODING 87
SWIDTH 750 0
DWIDTH 12 0
BBX 11 8 0 0
BITMAP
E0E0
4040
4440
4440
2A80
2A80
3180
3180
ENDCHAR
STARTCHAR 0058
ENCODING 88
SWIDTH 500 0
DWIDTH 8 0
BBX 7 8 0 0
BITMAP
EE
44
28
10
10
28
44
EE
ENDCHAR
STARTCHAR 0059
ENCODING 89
SWIDTH 500 0
DWIDTH 8 0
BBX 7 8 0 0
BITMAP
EE
44
28
10
10
10
10
38
ENDCHAR
STARTCHAR 005A
ENCODING 90
SWIDTH 375 0
DWIDTH 6 0
BBX 5 8 0 0
BITMAP
F8
88
90
20
20
48
88
F8
ENDCHAR
STARTCHAR 005B
ENCODING 91
SWIDTH 250 0
DWIDTH 4 0
BBX 2 10 1 -2
BITMAP
C0
80
80
80
80
80
80
80
80
C0
ENDCHAR
STARTCHAR 005C
ENCODING 92
SWIDTH 375 0
DWIDTH 6 0
BBX 5 10 0 -2
BITMAP
80
80
40
40
20
20
10
10
08
08
ENDCHAR
STARTCHAR 005D
ENCODING 93
SWIDTH 250 0
DWIDTH 4 0
BBX 2 10 1 -2
BITMAP
C0
40
40
40
40
40
40
40
40
C0
ENDCHAR
STARTCHAR 005E
ENCODING 94
SWIDTH 437 0
DWIDTH 7 0
BBX 5 3 1 5
BITMAP
20
50
88
ENDCHAR
STARTCHAR 005F
ENCODING 95
SWIDTH 500 0
DWIDTH 8 0
BBX 7 1 0 -2
BITMAP
FE
ENDCHAR
STARTCHAR 0060
ENCODING 96
SWIDTH 312 0
DWIDTH 5 0
BBX 3 3 1 5
BITMAP
80
40
20
ENDCHAR
STARTCHAR 0061
ENCODING 97
SWIDTH 437 0
DWIDTH 7 0
BBX 6 6 0 0
BITMAP
70
08
78
88
98
6C
ENDCHAR
STARTCHAR 0062
ENCODING 98
SWIDTH 500 0
DWIDTH 8 0
BBX 7 8 0 0
BITMAP
C0
40
5C
62
42
42
62
DC
ENDCHAR
STARTCHAR 0063
ENCODING 99
SWIDTH 500 0
DWIDTH 8 0
BBX 6 6 1 0
BITMAP
7C
8C
80
80
84
78
ENDCHAR
STARTCHAR 0064
ENCODING 100
SWIDTH 500 0
DWIDTH 8 0
BBX 7 8 0 0
BITMAP
0C
04
74
8C
84
84
8C
76
ENDCHAR
STARTCHAR 0065
ENCODING 101
SWIDTH 437 0
DWIDTH 7 0
BBX 6 6 0 0
BITMAP
78
84
FC
80
8C
7C
ENDCHAR
STARTCHAR 0066
ENCODING 102
SWIDTH 437 0
DWIDTH 7 0
BBX 6 8 0 0
BITMAP
3C
40
F8
40
40
40
40
F0
ENDCHAR
STARTCHAR 0067
ENCODING 103
SWIDTH 500 0
DWIDTH 8 0
BBX 7 8 0 -2
BITMAP
76
8C
84
84
8C
74
04
38
ENDCHAR
STARTCHAR 0068
ENCODING 104
SWIDTH 500 0
DWIDTH 8 0
BBX 7 8 0 0
BITMAP
C0
40
58
64
44
44
44
EE
ENDCHAR
STARTCHAR 0069
ENCODING 105
SWIDTH 437 0
DWIDTH 7 0
BBX 5 9 1 0
BITMAP
20
20
00
60
20
20
20
20
F8
ENDCHAR
STARTCHAR 006A
ENCODING 106
SWIDTH 312 0
DWIDTH 5 0
BBX 4 11 0 -2
BITMAP
10
10
00
70
10
10
10
10
10
10
E0
ENDCHAR
STARTCHAR 006B
ENCODING 107
SWIDTH 500 0
DWIDTH 8 0
BBX 7 8 0 0
BITMAP
C0
40
4E
48
50
68
44
C6
ENDCHAR
STARTCHAR 006C
ENCODING 108
SWIDTH 375 0
DWIDTH 6 0
BBX 5 8 0 0
BITMAP
60
20
20
20
20
20
20
F8
ENDCHAR
STARTCHAR 006D
ENCODING 109
SWIDTH 625 0
DWIDTH 10 0
BBX 9 6 0 0
BITMAP
DB00
6D00
4900
4900
4900
ED80
ENDCHAR
STARTCHAR 006E
ENCODING 110
SWIDTH 500 0
DWIDTH 8 0
BBX 7 6 0 0
BITMAP
D8
64
44
44
44
EE
ENDCHAR
STARTCHAR 006F
ENCODING 111
SWIDTH 437 0
DWIDTH 7 0
BBX 6 6 0 0
BITMAP
78
84
84
84
84
78
ENDCHAR
STARTCHAR 0070
ENCODING 112
SWIDTH 500 0
DWIDTH 8 0
BBX 7 8 0 -2
BITMAP
DC
62
42
42
62
5C
40
F0
ENDCHAR
STARTCHAR 0071
ENCODING 113
SWIDTH 500 0
DWIDTH 8 0
BBX 7 8 0 -2
BITMAP
76
8C
84
84
8C
74
04
0E
ENDCHAR
STARTCHAR 0072
ENCODING 114
SWIDTH 437 0
DWIDTH 7 0
BBX 6 6 0 0
BITMAP
CC
5C
60
40
40
F0
ENDCHAR
STARTCHAR 0073
ENCODING 115
SWIDTH 437 0
DWIDTH 7 0
BBX 6 6 0 0
BITMAP
7C
8C
E0
1C
84
F8
ENDCHAR
STARTCHAR 0074
ENCODING 116
SWIDTH 375 0
DWIDTH 6 0
BBX 5 7 0 0
BITMAP
40
F0
40
40
40
40
38
ENDCHAR
STARTCHAR 0075
ENCODING 117
SWIDTH 500 0
DWIDTH 8 0
BBX 7 6 0 0
BITMAP
CC
44
44
44
4C
36
ENDCHAR
STARTCHAR 0076
ENCODING 118
SWIDTH 562 0
DWIDTH 9 0
BBX 8 6 0 0
BITMAP
E7
42
24
24
18
18
ENDCHAR
STARTCHAR 0077
ENCODING 119
SWIDTH 625 0
DWIDTH 10 0
BBX 9 6 0 0
BITMAP
E380
4100
4900
2A00
3600
3600
ENDCHAR
STARTCHAR 0078
ENCODING 120
SWIDTH 500 0
DWIDTH 8 0
BBX 7 6 0 0
BITMAP
EE
44
38
28
44
EE
ENDCHAR
STARTCHAR 0079
ENCODING 121
SWIDTH 562 0
DWIDTH 9 0
BBX 8 8 0 -2
BITMAP
E7
42
24
24
18
18
10
78
ENDCHAR
STARTCHAR 007A
ENCODING 122
SWIDTH 375 0
DWIDTH 6 0
BBX 5 6 0 0
BITMAP
F8
88
10
20
48
F8
ENDCHAR
STARTCHAR 007B
ENCODING 123
SWIDTH 312 0
DWIDTH 5 0
BBX 3 10 1 -2
BITMAP
20
40
40
40
80
80
40
40
40
20
ENDCHAR
STARTCHAR 007C
ENCODING 124
SWIDTH 187 0
DWIDTH 3 0
BBX 1 10 1 -2
BITMAP
80
80
80
80
80
80
80
80
80
80
ENDCHAR
STARTCHAR 007D
ENCODING 125
SWIDTH 312 0
DWIDTH 5 0
BBX 3 10 1 -2
BITMAP
80
40
40
40
20
20
40
40
40
80
ENDCHAR
STARTCHAR 007E
ENCODING 126
SWIDTH 437 0
DWIDTH 7 0
BBX 5 4 1 1
BITMAP
60
A8
A8
30
ENDCHAR
STARTCHAR 00A0
ENCODING 160
SWIDTH 312 0
DWIDTH 5 0
BBX 0 0 0 0
BITMAP
ENDCHAR
STARTCHAR 00A1
ENCODING 161
SWIDTH 187 0
DWIDTH 3 0
BBX 1 8 1 -2
BITMAP
80
80
00
80
80
80
80
80
ENDCHAR
STARTCHAR 00A2
ENCODING 162
SWIDTH 437 0
DWIDTH 7 0
BBX 5 9 1 0
BITMAP
20
20
78
88
80
80
78
20
20
ENDCHAR
STARTCHAR 00A3
ENCODING 163
SWIDTH 500 0
DWIDTH 8 0
BBX 6 8 1 0
BITMAP
30
48
40
40
F0
40
44
F8
ENDCHAR
STARTCHAR 00A4
ENCODING 164
SWIDTH 500 0
DWIDTH 8 0
BBX 6 6 1 1
BITMAP
84
78
48
48
78
84
ENDCHAR
STARTCHAR 00A5
ENCODING 165
SWIDTH 500 0
DWIDTH 8 0
BBX 7 8 0 0
BITMAP
EE
44
28
10
7C
7C
10
38
ENDCHAR
STARTCHAR 00A6
ENCODING 166
SWIDTH 187 0
DWIDTH 3 0
BBX 1 10 1 -2
BITMAP
80
80
80
80
00
00
80
80
80
80
ENDCHAR
STARTCHAR 00A7
ENCODING 167
SWIDTH 500 0
DWIDTH 8 0
BBX 6 9 1 -1
BITMAP
38
48
E0
90
48
24
1C
88
F0
ENDCHAR
STARTCHAR 00A8
ENCODING 168
SWIDTH 437 0
DWIDTH 7 0
BBX 5 2 1 6
BITMAP
D8
D8
ENDCHAR
STARTCHAR 00A9
ENCODING 169
SWIDTH 562 0
DWIDTH 9 0
BBX 8 8 0 0
BITMAP
3C
42
99
A1
A1
99
42
3C
ENDCHAR
STARTCHAR 20AC
ENCODING 8364
SWIDTH 500 0
DWIDTH 8 0
BBX 7 8 0 0
BITMAP
1E
26
40
F8
F0
40
22
1C
ENDCHAR
STARTCHAR 3000
ENCODING 12288
SWIDTH 1000 0
DWIDTH 16 0
BBX 0 0 0 0
BITMAP
ENDCHAR
ENDFONT
